<svg xmlns="http://www.w3.org/2000/svg" width="24" height="25" viewBox="0 0 24 25">
  <g id="グループ_879" data-name="グループ 879" transform="translate(-1229 -81)">
    <rect id="長方形_2055" data-name="長方形 2055" width="24" height="25" transform="translate(1229 81)" fill="none"/>
    <path id="パス_1024" data-name="パス 1024" d="M1236.616,99.871c1.19,1.1,3.409,2.872,4.227,3.521a.5.5,0,0,0,.624,0c.808-.662,3-2.472,4.17-3.589,2.662-2.537,5.872-5.193,5.428-10.027-.492-5.35-6.884-6.994-9.644-3.221a.5.5,0,0,1-.8.007c-2.82-3.729-9.185-1.983-9.591,3.375C1230.662,94.772,1233.914,97.376,1236.616,99.871Z" fill="none" stroke="#152144" stroke-miterlimit="10" stroke-width="1"/>
  </g>
</svg>
