<svg xmlns="http://www.w3.org/2000/svg" width="25" height="25" viewBox="0 0 25 25">
  <g id="グループ_880" data-name="グループ 880" transform="translate(-1270.5 -81)">
    <rect id="長方形_2056" data-name="長方形 2056" width="25" height="25" transform="translate(1270.5 81)" fill="none"/>
    <g id="グループ_836" data-name="グループ 836">
      <path id="パス_1021" data-name="パス 1021" d="M1289.521,104h-13.042a1,1,0,0,1-.966-.742l-2.9-10.834a1,1,0,0,1,.966-1.259h18.836a1,1,0,0,1,.967,1.259l-2.9,10.834A1,1,0,0,1,1289.521,104Z" fill="none" stroke="#152144" stroke-miterlimit="10" stroke-width="1"/>
      <path id="パス_1022" data-name="パス 1022" d="M1278.04,91.165V89.174a5.1,5.1,0,0,1,4.472-5.151,4.962,4.962,0,0,1,5.449,4.937v2.324" fill="none" stroke="#152144" stroke-miterlimit="10" stroke-width="1"/>
    </g>
  </g>
</svg>
