<?xml version="1.0" encoding="UTF-8"?><svg id="_レイヤー_2" xmlns="http://www.w3.org/2000/svg" viewBox="0 0 147.63 101.13"><defs><style>.cls-1{fill:#152144;}</style></defs><g id="_レイヤー_1-2"><path class="cls-1" d="m73.82.41c40.47,0,73.4,22.5,73.4,50.15s-32.93,50.15-73.4,50.15S.41,78.22.41,50.56,33.34.41,73.82.41m0-.41C33.11,0,0,22.68,0,50.56s33.11,50.56,73.82,50.56,73.81-22.68,73.81-50.56S114.52,0,73.82,0h0Z"/><path class="cls-1" d="m73.82,100.09C33.68,100.09,1.03,77.87,1.03,50.56S33.68,1.03,73.82,1.03s72.77,22.22,72.77,49.53-32.65,49.53-72.77,49.53Zm0-97.83C34.35,2.26,2.26,23.93,2.26,50.56s32.09,48.3,71.55,48.3,71.55-21.67,71.55-48.3S113.27,2.26,73.82,2.26Z"/><path class="cls-1" d="m71.4,30.67h1.13v6.85c0,1.21-.11,2.1-.33,2.65-.29.8-.8,1.4-1.51,1.83-.72.43-1.59.64-2.61.64-.73,0-1.4-.11-1.99-.3-.59-.21-1.07-.49-1.44-.84-.38-.35-.71-.86-1.03-1.54h1.21c.33.56.76.99,1.28,1.27.52.27,1.16.41,1.93.41s1.4-.14,1.92-.43c.52-.28.9-.64,1.12-1.06.22-.42.32-1.11.32-2.06v-.44c-.41.52-.92.93-1.53,1.21-.6.28-1.24.42-1.91.42-.8,0-1.54-.19-2.23-.59-.71-.39-1.24-.92-1.62-1.58-.37-.66-.57-1.4-.57-2.19s.2-1.53.6-2.23c.4-.68.95-1.23,1.64-1.63.7-.4,1.44-.61,2.21-.61.64,0,1.24.13,1.81.41.56.26,1.1.71,1.6,1.31v-1.49m-3.26.84c-.63,0-1.2.16-1.74.45-.53.32-.95.74-1.26,1.27-.31.54-.46,1.13-.46,1.75,0,.95.32,1.74.95,2.36.63.62,1.45.93,2.46.93s1.84-.31,2.45-.92c.62-.62.92-1.43.92-2.43,0-.65-.14-1.24-.42-1.74-.29-.51-.69-.92-1.21-1.21-.52-.3-1.08-.45-1.68-.45Z"/><path class="cls-1" d="m81.61,36.44l.94.49c-.31.6-.65,1.08-1.06,1.44-.41.36-.85.65-1.35.84-.51.19-1.07.28-1.7.28-1.41,0-2.51-.44-3.31-1.38-.79-.92-1.18-1.96-1.18-3.13,0-1.09.32-2.07,1.01-2.92.85-1.09,1.98-1.63,3.41-1.63s2.64.56,3.52,1.68c.62.78.94,1.77.95,2.95h-7.75c.02,1,.35,1.82.96,2.46.62.64,1.38.96,2.29.96.44,0,.86-.08,1.28-.23.42-.15.76-.35,1.06-.6.29-.25.61-.66.94-1.21m0-2.33c-.14-.6-.36-1.06-.65-1.42-.28-.36-.66-.65-1.12-.86-.47-.21-.95-.32-1.47-.32-.84,0-1.57.27-2.17.81-.44.41-.78,1-1.01,1.8h6.41Z"/><rect class="cls-1" x="84.28" y="27.35" width="1.11" height="11.92"/><path class="cls-1" d="m95.83,30.67v8.6h-1.11v-1.48c-.47.58-.99.99-1.56,1.28-.58.29-1.21.43-1.9.43-1.2,0-2.25-.44-3.1-1.33-.86-.88-1.29-1.95-1.29-3.23s.43-2.3,1.3-3.19c.86-.88,1.91-1.32,3.12-1.32.71,0,1.35.15,1.92.46.57.3,1.07.75,1.5,1.35v-1.58h1.11m-4.43.84c-.61,0-1.18.15-1.69.45-.52.31-.93.74-1.23,1.29-.3.54-.46,1.13-.46,1.74s.16,1.19.47,1.74c.3.56.72,1,1.24,1.29.53.31,1.08.47,1.67.47s1.17-.16,1.71-.46c.53-.31.95-.72,1.24-1.25.28-.52.43-1.11.43-1.77,0-1-.33-1.83-.98-2.5-.65-.67-1.45-1-2.4-1Z"/><polygon class="cls-1" points="98.67 27.47 99.79 27.47 99.79 30.67 101.53 30.67 101.53 31.63 99.79 31.63 99.79 39.27 98.67 39.27 98.67 31.63 97.16 31.63 97.16 30.67 98.67 30.67 98.67 27.47"/><path class="cls-1" d="m106.6,30.44c1.32,0,2.42.48,3.29,1.45.79.87,1.18,1.9,1.18,3.11s-.41,2.26-1.25,3.16c-.83.91-1.91,1.35-3.22,1.35s-2.39-.44-3.23-1.35c-.84-.9-1.25-1.95-1.25-3.16s.39-2.22,1.19-3.1c.86-.96,1.96-1.45,3.3-1.45m0,1.09c-.92,0-1.7.35-2.36,1.03-.65.69-.99,1.51-.99,2.49,0,.62.15,1.2.45,1.74.3.55.7.97,1.22,1.25.51.3,1.06.45,1.67.45s1.16-.15,1.68-.45c.51-.28.91-.7,1.21-1.25.3-.55.45-1.12.45-1.74,0-.98-.33-1.8-.99-2.49-.66-.69-1.44-1.03-2.36-1.03Z"/><path class="cls-1" d="m50.68,37.21c-.53.53-.8,1.18-.8,1.93s.27,1.38.8,1.91c.54.53,1.18.8,1.93.8s1.4-.27,1.94-.8c.54-.54.81-1.18.81-1.91s-.26-1.4-.81-1.93c-.53-.53-1.19-.79-1.94-.79s-1.39.26-1.93.79Z"/><path class="cls-1" d="m38.32,43.5c-1.62,0-3.11.35-4.43,1.03-.75.4-1.45.91-2.11,1.53v-2.11h-3.87v26.49h3.87v-8.73c.69.61,1.44,1.13,2.22,1.52,1.33.66,2.8.99,4.38.99,2.81,0,5.24-1.02,7.22-3.04,1.98-2.01,2.98-4.49,2.98-7.37s-1.01-5.28-3.01-7.28c-2-2.02-4.44-3.03-7.25-3.03Zm5.45,13.68c-.59,1.06-1.39,1.87-2.39,2.45-1,.58-2.07.88-3.2.88s-2.28-.3-3.32-.88c-1.04-.59-1.82-1.35-2.39-2.33-.56-.99-.84-2.11-.84-3.36,0-1.91.62-3.46,1.89-4.74,1.26-1.27,2.78-1.9,4.64-1.9,1.16,0,2.27.29,3.26.86.99.58,1.79,1.38,2.38,2.42.59,1.03.89,2.15.89,3.29s-.31,2.25-.9,3.29Z"/><polygon class="cls-1" points="50.68 43.96 50.68 63.76 54.55 63.76 54.55 43.96 53.78 43.96 50.68 43.96"/><path class="cls-1" d="m73.36,46.05c-.64-.61-1.34-1.12-2.1-1.52-1.32-.69-2.82-1.03-4.45-1.03-2.81,0-5.24,1.01-7.24,3.03-1.99,2-3.01,4.45-3.01,7.28s1,5.36,2.98,7.37c1.98,2.02,4.41,3.04,7.2,3.04,1.58,0,3.06-.33,4.4-.99.78-.39,1.53-.9,2.22-1.52v8.73h3.87v-26.49h-3.87v2.1Zm-.73,11.25c-.56.98-1.34,1.75-2.37,2.33-1.03.58-2.14.88-3.3.88s-2.19-.29-3.21-.88c-.99-.58-1.79-1.39-2.39-2.45-.59-1.04-.89-2.16-.89-3.29s.3-2.26.88-3.29c.59-1.04,1.38-1.85,2.37-2.42.99-.57,2.08-.86,3.25-.86,1.84,0,3.35.63,4.61,1.9,1.26,1.28,1.88,2.83,1.88,4.74,0,1.25-.29,2.37-.84,3.36Z"/><path class="cls-1" d="m93.46,43.96v9.28c0,2.74-.18,3.82-.32,4.24-.3.88-.82,1.56-1.62,2.11-.8.55-1.77.82-2.95.82s-2.17-.27-3-.84c-.82-.56-1.36-1.29-1.65-2.24-.15-.47-.31-1.58-.31-4.08v-9.28h-3.86v9.56c0,2.73.31,4.75.96,6.15.65,1.43,1.66,2.56,2.98,3.36,1.32.79,2.95,1.19,4.87,1.19s3.54-.4,4.86-1.19c1.3-.8,2.31-1.92,2.96-3.33.64-1.38.95-3.35.95-6v-9.73h-3.86Z"/><path class="cls-1" d="m115.69,56.53c-.68,1.1-1.3,1.92-1.86,2.4-.54.46-1.22.85-2.02,1.14-.8.3-1.63.45-2.47.45-1.74,0-3.17-.59-4.35-1.81-1.02-1.05-1.6-2.32-1.78-3.9h16.5v-.77c-.03-2.65-.77-4.91-2.2-6.7-2.02-2.54-4.73-3.82-8.09-3.82s-5.92,1.26-7.88,3.74c-1.53,1.95-2.31,4.18-2.31,6.67,0,2.64.92,5.04,2.73,7.11,1.83,2.12,4.38,3.2,7.6,3.2,1.43,0,2.74-.22,3.89-.66,1.16-.44,2.22-1.09,3.13-1.93.92-.85,1.73-1.96,2.43-3.31l.35-.69-3.29-1.73-.38.63Zm-10.4-7.73c1.16-1.03,2.53-1.54,4.16-1.54.98,0,1.92.21,2.81.62.88.4,1.6.94,2.12,1.59.38.47.69,1.07.94,1.77h-11.62c.42-1.05.95-1.87,1.59-2.44Z"/></g></svg>