<?xml version="1.0" encoding="UTF-8"?><svg id="_レイヤー_2" xmlns="http://www.w3.org/2000/svg" viewBox="0 0 204 56"><defs><style>.cls-1{fill:#c3c4c9;stroke-width:0px;}</style></defs><g id="txt"><path class="cls-1" d="m5.64,43.96l.14,1.92c-1.24.07-2.24.54-2.98,1.41-.64.76-.93,1.62-.87,2.56.07.95.46,1.73,1.18,2.34.74.64,1.6.91,2.56.82.97-.09,1.78-.53,2.44-1.31.43-.51.69-1.03.77-1.56.08-.53-.01-1.1-.28-1.7l-1.9,2.25-1.37-1.18,3.29-3.9.33.27c.67.58,1.16,1.3,1.47,2.17.31.87.38,1.72.23,2.55s-.55,1.62-1.18,2.37c-.68.8-1.46,1.37-2.34,1.71-.88.33-1.79.41-2.74.22-.95-.18-1.8-.59-2.54-1.23-1.02-.87-1.61-1.97-1.79-3.3-.22-1.57.22-3.01,1.31-4.3.57-.67,1.23-1.2,1.97-1.57.63-.32,1.4-.49,2.3-.53Z"/><path class="cls-1" d="m7.57,39.56l3.93-3.9,1.32,1.35-2.57,2.55,1.28,1.31,2.57-2.55,1.29,1.33-2.57,2.55,1.86,1.91,2.57-2.55,1.32,1.36-3.93,3.9-7.07-7.27Z"/><path class="cls-1" d="m14.26,33.15l1.46-1.26,5.39,6.32,2.12-1.84,1.19,1.4-3.58,3.11-6.58-7.72Z"/><path class="cls-1" d="m23.02,25.98l1.57-1.16,9.09,5.91-1.61,1.19-1.87-1.22-3.32,2.46.57,2.18-1.61,1.19-2.82-10.54Zm2.38,1.59l.95,3.63,2.18-1.61-3.13-2.02Z"/><path class="cls-1" d="m29.83,21.17l4.74-2.96,1,1.63-1.56.98,4.32,7.04-1.66,1.04-4.32-7.04-1.52.95-1-1.63Z"/><path class="cls-1" d="m41.6,14.06c1.27-.65,2.6-.75,3.99-.29,1.38.46,2.41,1.36,3.09,2.7.67,1.33.78,2.68.34,4.06s-1.31,2.4-2.6,3.07c-1.35.69-2.71.8-4.08.32-1.37-.48-2.38-1.37-3.03-2.67-.44-.87-.63-1.77-.58-2.72.05-.94.33-1.81.84-2.61.51-.8,1.19-1.42,2.03-1.85Zm.83,1.7c-.83.43-1.39,1.08-1.66,1.96-.27.88-.18,1.76.27,2.67.51,1,1.26,1.61,2.27,1.83.79.17,1.54.07,2.26-.3.81-.42,1.35-1.07,1.63-1.96.27-.89.19-1.76-.25-2.63-.44-.86-1.09-1.45-1.97-1.75-.88-.3-1.73-.24-2.55.18Z"/><path class="cls-1" d="m55.26,8.25l1.92-.68c1.04-.37,1.83-.53,2.35-.5.53.03,1,.22,1.41.56.42.34.73.81.94,1.42.23.67.25,1.29.06,1.86-.19.57-.56,1.04-1.1,1.43-.32.22-.94.5-1.86.82l1.41,4.07-1.81.64-3.32-9.62Zm3.11,3.12l.58-.2c.45-.16.76-.3.91-.43s.26-.28.31-.47c.05-.19.04-.39-.04-.6-.13-.37-.36-.59-.71-.66-.25-.05-.66.02-1.22.21l-.51.18.68,1.98Z"/><path class="cls-1" d="m64.4,5.23l1.84-.52,2.74,9.81-1.84.52-2.74-9.8Z"/><path class="cls-1" d="m80.41,10.39l2.17,1.9-2.23.45-1.1-.96c-.64.55-1.41.91-2.3,1.09-1.49.3-2.82.04-4.01-.8-1.19-.83-1.93-1.97-2.21-3.4-.19-.95-.14-1.88.16-2.77s.8-1.65,1.51-2.29c.71-.63,1.52-1.04,2.44-1.23,1.4-.29,2.71-.02,3.92.8,1.21.82,1.96,1.96,2.26,3.43.27,1.35.07,2.61-.6,3.77Zm-1.48-1.3c.28-.68.35-1.38.2-2.1-.19-.95-.67-1.68-1.43-2.22-.76-.53-1.6-.71-2.49-.52-.92.19-1.63.67-2.13,1.44s-.64,1.65-.45,2.64c.22,1.1.79,1.9,1.7,2.38.72.38,1.46.49,2.25.33.45-.09.85-.27,1.21-.52l-2.23-1.94,2.25-.46,1.12.98Z"/><path class="cls-1" d="m83.89,1.09l1.92-.2.67,6.55c.06.56.15.96.27,1.18.12.22.3.39.54.51s.52.16.84.12c.34-.04.62-.14.85-.32.23-.18.38-.4.44-.65.07-.25.07-.72,0-1.39l-.65-6.31,1.92-.2.62,6.04c.1,1.02.12,1.73.05,2.14-.07.41-.25.81-.54,1.21-.28.4-.62.71-1.03.93-.4.22-.88.36-1.43.42-.73.08-1.38-.03-1.95-.31-.57-.28-1-.66-1.29-1.15s-.49-1.33-.61-2.54l-.62-6.04Z"/><path class="cls-1" d="m94.91.14l5.51-.14.05,1.9-3.6.09.05,1.84,3.6-.09.05,1.86-3.6.09.07,2.68,3.6-.09.05,1.9-5.51.14-.26-10.18Z"/><path class="cls-1" d="m109.51,2.85l1.86.21-.1.86c.36-.32.74-.54,1.15-.67.41-.13.84-.17,1.3-.12.46.05.87.21,1.22.49.35.27.61.64.79,1.11.34-.41.74-.7,1.2-.88s.94-.24,1.45-.19c.53.06.98.24,1.35.53s.62.65.76,1.07c.13.42.15,1.08.05,1.98l-.49,4.39-1.88-.21.42-3.8c.09-.85.05-1.44-.12-1.76s-.47-.51-.89-.56c-.32-.04-.61.02-.89.18-.27.16-.49.39-.65.7-.16.31-.28.82-.36,1.54l-.37,3.38-1.88-.21.4-3.63c.07-.67.08-1.16.01-1.47-.06-.31-.19-.55-.37-.72-.18-.17-.41-.27-.69-.3-.31-.03-.6.03-.87.18-.27.16-.49.4-.65.72-.16.32-.28.84-.36,1.56l-.37,3.33-1.86-.21.83-7.49Z"/><path class="cls-1" d="m130.92,10.66l-5.88-1.28c-.03.54.11,1.01.41,1.4.3.39.74.65,1.31.77.68.15,1.32.04,1.92-.34l1.39,1.07c-.5.47-1.05.77-1.64.92s-1.26.14-2-.02c-1.14-.25-2-.82-2.56-1.7-.56-.89-.73-1.88-.49-2.97.24-1.12.8-1.98,1.68-2.56.88-.59,1.86-.76,2.94-.52,1.15.25,2,.83,2.56,1.73.56.9.71,1.96.45,3.18l-.08.35Zm-1.52-1.85c-.03-.44-.2-.82-.5-1.16-.3-.34-.69-.55-1.16-.66-.51-.11-.99-.06-1.44.14-.28.13-.57.4-.88.81l3.97.87Z"/><path class="cls-1" d="m140.96,13.66l-5.75-1.78c-.07.54.02,1.01.29,1.43.27.41.68.71,1.24.88.67.21,1.32.15,1.94-.17l1.29,1.18c-.54.42-1.11.68-1.72.78s-1.27.03-1.99-.19c-1.12-.35-1.92-.99-2.41-1.92-.49-.93-.57-1.93-.24-3.01.33-1.1.96-1.9,1.89-2.41.92-.51,1.91-.6,2.97-.27,1.12.35,1.93,1,2.41,1.94s.54,2.01.18,3.2l-.11.34Zm-1.36-1.98c0-.44-.13-.84-.4-1.2-.27-.36-.64-.61-1.1-.75-.5-.16-.98-.15-1.44.02-.29.1-.6.35-.94.73l3.88,1.2Z"/><path class="cls-1" d="m146.47,8.18l1.75.67-.98,2.6,1.04.4-.57,1.52-1.04-.4-2.08,5.52-1.75-.67,2.08-5.52-.9-.35.57-1.52.9.35.98-2.6Z"/><path class="cls-1" d="m154.5,15.71l-1.53.59c-.24-.62-.54-1.01-.89-1.17-.19-.09-.36-.11-.51-.08-.15.03-.24.11-.3.23-.04.09-.04.19,0,.3.03.11.16.29.37.55l.49.6c.52.63.82,1.16.92,1.62.1.45.04.91-.16,1.37-.27.61-.72,1.02-1.34,1.23s-1.31.15-2.06-.19c-.99-.45-1.62-1.19-1.86-2.25l1.56-.69c.1.33.25.62.45.89.21.27.41.45.62.54.23.1.43.13.62.08s.31-.14.37-.29c.12-.27-.02-.64-.4-1.11l-.45-.55c-.86-1.06-1.1-2.01-.73-2.85.24-.54.65-.92,1.24-1.12.59-.2,1.2-.15,1.85.14.44.2.82.48,1.12.86s.51.8.62,1.29Z"/><path class="cls-1" d="m164.32,16.63l1.66.97-4.13,7.22,2.42,1.41-.92,1.6-4.09-2.38,5.05-8.82Z"/><path class="cls-1" d="m175.47,23.38c1.17.82,1.88,1.96,2.14,3.41s-.05,2.79-.89,4.02c-.84,1.22-1.97,1.96-3.38,2.22-1.41.26-2.72-.03-3.9-.86-1.24-.87-1.98-2.03-2.2-3.48-.22-1.45.07-2.77.9-3.96.55-.8,1.25-1.4,2.1-1.8.85-.4,1.74-.56,2.68-.48.94.08,1.8.39,2.57.93Zm-1.09,1.55c-.77-.54-1.6-.72-2.49-.55s-1.63.67-2.2,1.5c-.64.92-.81,1.89-.53,2.89.22.78.66,1.4,1.32,1.87.75.53,1.57.7,2.48.52.9-.18,1.63-.66,2.18-1.46.55-.8.75-1.66.6-2.58s-.6-1.65-1.36-2.19Z"/><path class="cls-1" d="m182.14,28.62l1.5,1.3-2.73,7.17,6.62-3.81,1.5,1.29-9.32,5.36-1.41-1.21,3.84-10.09Z"/><path class="cls-1" d="m195.24,40.44c.99,1.04,1.47,2.3,1.43,3.77-.03,1.47-.59,2.73-1.66,3.76-1.06,1.03-2.31,1.53-3.75,1.5s-2.66-.57-3.66-1.62c-1.05-1.1-1.54-2.39-1.48-3.85s.61-2.7,1.65-3.7c.7-.67,1.5-1.12,2.41-1.35.91-.23,1.82-.21,2.72.06s1.69.74,2.34,1.43Zm-1.37,1.3c-.65-.68-1.42-1.03-2.33-1.04-.91,0-1.73.33-2.45,1.03-.81.78-1.16,1.69-1.08,2.73.06.81.38,1.51.93,2.09.63.66,1.41,1,2.32,1.01.92,0,1.73-.33,2.42-1,.69-.67,1.06-1.47,1.09-2.41.03-.94-.27-1.74-.91-2.41Z"/><path class="cls-1" d="m200.49,46.65l3.51,4.37-1.47,1.2-1.16-1.44-6.37,5.21-1.23-1.53,6.37-5.21-1.13-1.4,1.47-1.2Z"/></g></svg>